<?xml version="1.0" encoding="UTF-8"?>
<svg width="25px" height="26px" viewBox="0 0 25 26" version="1.1" xmlns="http://www.w3.org/2000/svg" xmlns:xlink="http://www.w3.org/1999/xlink">
    <title>编组</title>
    <defs>
        <linearGradient x1="73.9840571%" y1="94.7214614%" x2="38.5288216%" y2="12.3658715%" id="linearGradient-1">
            <stop stop-color="#F79E73" offset="0%"></stop>
            <stop stop-color="#FFDBC9" offset="100%"></stop>
        </linearGradient>
    </defs>
    <g id="页面-1" stroke="none" stroke-width="1" fill="none" fill-rule="evenodd">
        <g id="画板" transform="translate(-840.000000, -359.000000)" fill="url(#linearGradient-1)" fill-rule="nonzero">
            <g id="编组" transform="translate(840.000000, 359.000000)">
                <path d="M19.9561403,23.4344637 L4.62213226,23.4344637 C3.92346708,23.4345722 3.35714376,24.0088553 3.35714376,24.7172319 C3.35714376,25.4256085 3.92346708,25.9998916 4.62213226,26 L19.9561403,26 C20.6548055,25.9998916 21.2211289,25.4256085 21.2211289,24.7172319 C21.2211289,24.0088553 20.6548055,23.4345722 19.9561403,23.4344637 M19.3024629,14.9664836 C19.3024629,15.6749368 18.7360215,16.2492517 18.0372807,16.2492517 C17.3385399,16.2492517 16.7720985,15.6749368 16.7720985,14.9664836 L16.7720985,10.4673881 C16.7720985,9.7589348 17.3385399,9.18461993 18.0372807,9.18461993 C18.7360215,9.18461993 19.3024629,9.7589348 19.3024629,10.4673881 L19.3024629,14.9673387 L19.3024629,14.9664836 Z M13.7660257,14.9664836 C13.7659187,15.6748602 13.1995086,16.2490553 12.5008435,16.2490553 C11.8021783,16.2490553 11.2357682,15.6748602 11.2356613,14.9664836 L11.2356613,5.96743742 C11.2355921,5.50910173 11.4767193,5.08555206 11.8681964,4.85636395 C12.2596736,4.62717585 12.7420133,4.62717585 13.1334905,4.85636395 C13.5249676,5.08555206 13.7660948,5.50910173 13.7660257,5.96743742 L13.7660257,14.9664836 L13.7660257,14.9664836 Z M8.17813767,14.9664836 C8.17813767,15.6749369 7.6116963,16.2492517 6.91295547,16.2492517 C6.21421464,16.2492517 5.64777327,15.6749369 5.64777327,14.9664836 L5.64777327,8.08400486 C5.64777327,7.37555157 6.21421464,6.8012367 6.91295547,6.8012367 C7.6116963,6.8012367 8.17813767,7.37555157 8.17813767,8.08400486 L8.17813767,14.9664836 Z M22.5067476,0.000855165404 L2.49409584,0.000855165404 C1.11755174,0.00226842569 0.00185949357,1.13308618 0,2.5287636 L0,18.3547018 C0.00139478449,19.7507132 1.1172229,20.8820513 2.49409584,20.8834654 L22.5067476,20.8834654 C23.8832912,20.8815801 24.9986061,19.7503798 25,18.3547018 L25,2.5287636 C24.9986052,1.13275222 23.8827771,0.00141417189 22.5059042,0 L22.5067476,0.000855165404 Z" id="形状"></path>
            </g>
        </g>
    </g>
</svg>