<?xml version="1.0" encoding="UTF-8"?>
<svg width="29px" height="27px" viewBox="0 0 29 27" version="1.1" xmlns="http://www.w3.org/2000/svg" xmlns:xlink="http://www.w3.org/1999/xlink">
    <title>形状结合</title>
    <defs>
        <linearGradient x1="75.9411562%" y1="88.8515365%" x2="37.5927734%" y2="17.3055471%" id="linearGradient-1">
            <stop stop-color="#73C1F7" offset="0%"></stop>
            <stop stop-color="#C9E4FF" offset="100%"></stop>
        </linearGradient>
    </defs>
    <g id="页面-1" stroke="none" stroke-width="1" fill="none" fill-rule="evenodd">
        <g id="画板" transform="translate(-672.000000, -357.000000)" fill="url(#linearGradient-1)" fill-rule="nonzero">
            <path d="M680.474468,378.685104 C681.804044,378.685104 682.881878,379.762938 682.881878,381.092514 C682.881878,382.42209 681.804044,383.499924 680.474468,383.499924 C679.144892,383.499924 678.067058,382.42209 678.067058,381.092514 C678.067058,379.762938 679.144892,378.685104 680.474468,378.685104 Z M694.921938,378.685104 C696.251514,378.685104 697.329348,379.762938 697.329348,381.092514 C697.329348,382.42209 696.251514,383.499924 694.921938,383.499924 C693.592362,383.499924 692.514528,382.42209 692.514528,381.092514 C692.514528,379.762938 693.592362,378.685104 694.921938,378.685104 Z M673.240417,357.580785 C673.537554,357.465866 673.868176,357.473709 674.15953,357.602586 L674.15953,357.602586 L678.508291,359.528138 C678.853839,359.689177 679.113965,359.990377 679.222991,360.355685 L679.222991,360.355685 L679.636764,361.901694 L699.237597,361.901694 C699.589913,361.901312 699.922191,362.065499 700.135923,362.34558 C700.349656,362.625661 700.420314,362.989492 700.32695,363.329213 L700.32695,363.329213 L699.010397,368.072563 L697.359817,374.232148 C697.204488,374.766203 696.719002,375.136497 696.162882,375.145083 L696.162882,375.145083 L682.922127,375.145083 L681.94863,376.277694 L696.127524,376.277694 C696.792312,376.277694 697.331229,376.816611 697.331229,377.481399 C697.331229,378.146187 696.792312,378.685104 696.127524,378.685104 L696.127524,378.685104 L679.623975,378.685104 C679.234626,378.798229 678.81448,378.706955 678.507162,378.442482 C678.234195,378.197122 678.074783,377.849847 678.066682,377.482904 C678.066884,377.075061 678.273591,376.695061 678.615872,376.473296 L678.615872,376.473296 L680.477477,374.307755 C680.469202,374.283681 680.461679,374.259607 680.454908,374.234781 L680.454908,374.234781 L677.045037,361.508985 L673.187162,359.799724 C672.895848,359.670844 672.667688,359.431484 672.552905,359.134332 C672.438122,358.837181 672.446125,358.506596 672.575153,358.215347 C672.703972,357.923967 672.943279,357.695704 673.240417,357.580785 Z M689,366 C688.447715,366 688,366.447715 688,367 L688,367 L688,370 C688,370.552285 688.447715,371 689,371 C689.552285,371 690,370.552285 690,370 L690,370 L690,367 C690,366.447715 689.552285,366 689,366 Z M684.577697,366.792292 C684.434755,366.258826 683.886418,365.942244 683.352952,366.085185 C682.819486,366.228127 682.502904,366.776464 682.645846,367.30993 L682.645846,367.30993 L683.422303,370.207708 C683.565245,370.741174 684.113582,371.057756 684.647048,370.914815 C685.180514,370.771873 685.497096,370.223536 685.354154,369.69007 L685.354154,369.69007 Z M694.647048,366.085185 C694.113582,365.942244 693.565245,366.258826 693.422303,366.792292 L693.422303,366.792292 L692.645846,369.69007 C692.502904,370.223536 692.819486,370.771873 693.352952,370.914815 C693.886418,371.057756 694.434755,370.741174 694.577697,370.207708 L694.577697,370.207708 L695.354154,367.30993 C695.497096,366.776464 695.180514,366.228127 694.647048,366.085185 Z" id="形状结合"></path>
        </g>
    </g>
</svg>